<svg width="28" height="28" viewBox="0 0 28 28" fill="none" xmlns="http://www.w3.org/2000/svg">
<path d="M23.6723 0H4.87551C2.51615 0 0.603516 1.91264 0.603516 4.27199V23.0687C0.603516 25.4281 2.51615 27.3407 4.87551 27.3407H23.6723C26.0316 27.3407 27.9443 25.4281 27.9443 23.0687V4.27199C27.9443 1.91264 26.0316 0 23.6723 0Z" fill="#25D366"/>
<path fill-rule="evenodd" clip-rule="evenodd" d="M19.0593 8.80105C17.7777 7.51946 16.0689 6.83594 14.2746 6.83594C10.5153 6.83594 7.43945 9.91177 7.43945 13.6711C7.43945 14.8673 7.78122 16.0634 8.3793 17.0887L7.43945 20.5063L11.0279 19.5665C12.0532 20.0791 13.1639 20.4209 14.2746 20.4209C18.034 20.4209 21.1098 17.345 21.1098 13.5857C21.1098 11.7914 20.3409 10.0827 19.0593 8.80105ZM14.2746 19.3101C13.2494 19.3101 12.2241 19.0538 11.3697 18.5412L11.1988 18.4558L9.0628 19.0538L9.66089 17.0033L9.49 16.747C8.89192 15.8071 8.63561 14.7818 8.63561 13.7566C8.63561 10.6807 11.1988 8.11753 14.2746 8.11753C15.8126 8.11753 17.1796 8.71561 18.2903 9.74089C19.401 10.8516 19.9137 12.2186 19.9137 13.7566C19.9137 16.747 17.4359 19.3101 14.2746 19.3101ZM17.3505 15.0382C17.1796 14.9527 16.3252 14.5255 16.1543 14.5255C15.9834 14.4401 15.898 14.4401 15.8125 14.611C15.7271 14.7818 15.3854 15.1236 15.2999 15.2945C15.2145 15.3799 15.129 15.3799 14.9581 15.3799C14.7873 15.2945 14.2746 15.1236 13.5911 14.5255C13.0785 14.0983 12.7367 13.5002 12.6513 13.3294C12.5658 13.1585 12.6513 13.073 12.7367 12.9876C12.8222 12.9022 12.9076 12.8167 12.993 12.7313C13.0785 12.6458 13.0785 12.5604 13.1639 12.475C13.2494 12.3895 13.1639 12.3041 13.1639 12.2186C13.1639 12.1332 12.8222 11.2788 12.6513 10.937C12.5658 10.6807 12.395 10.6807 12.3095 10.6807C12.2241 10.6807 12.1386 10.6807 11.9678 10.6807C11.8823 10.6807 11.7114 10.6807 11.5406 10.8516C11.3697 11.0225 10.9425 11.4497 10.9425 12.3041C10.9425 13.1585 11.5406 13.9274 11.626 14.0983C11.7114 14.1838 12.8222 15.978 14.5309 16.6615C15.9834 17.2596 16.2398 17.0887 16.5815 17.0887C16.9233 17.0887 17.6068 16.6615 17.6922 16.3198C17.8631 15.8926 17.8631 15.5508 17.7777 15.5508C17.6922 15.1236 17.5214 15.1236 17.3505 15.0382Z" fill="white"/>
</svg>
