<svg width="29" height="28" viewBox="0 0 29 28" fill="none" xmlns="http://www.w3.org/2000/svg">
<path d="M23.8051 0H5.00832C2.64896 0 0.736328 1.91264 0.736328 4.27199V23.0687C0.736328 25.4281 2.64896 27.3407 5.00832 27.3407H23.8051C26.1644 27.3407 28.0771 25.4281 28.0771 23.0687V4.27199C28.0771 1.91264 26.1644 0 23.8051 0Z" fill="#FF0000"/>
<path d="M20.9009 10.3392C20.73 9.74112 20.3028 9.31392 19.7047 9.14304C18.6795 8.88672 14.322 8.88672 14.322 8.88672C14.322 8.88672 10.05 8.88672 8.93931 9.14304C8.34123 9.31392 7.91402 9.74112 7.74314 10.3392C7.57226 11.4499 7.57227 13.6713 7.57227 13.6713C7.57227 13.6713 7.57227 15.8928 7.82859 17.0035C7.99947 17.6016 8.42666 18.0288 9.02474 18.1997C10.05 18.456 14.4074 18.456 14.4074 18.456C14.4074 18.456 18.6794 18.456 19.7901 18.1997C20.3882 18.0288 20.8154 17.6016 20.9863 17.0035C21.2426 15.8928 21.2426 13.6713 21.2426 13.6713C21.2426 13.6713 21.2426 11.4499 20.9009 10.3392ZM13.0404 15.7219V11.6208L16.6289 13.6713L13.0404 15.7219Z" fill="white"/>
</svg>
