<svg width="14" height="16" viewBox="0 0 14 16" fill="none" xmlns="http://www.w3.org/2000/svg">
<path d="M9.11742 15.728H4.27826C3.47612 15.728 2.70683 15.4093 2.13963 14.8421C1.57243 14.2749 1.25378 13.5056 1.25378 12.7035V5.44474C1.25378 5.28431 1.31751 5.13045 1.43095 5.01701C1.54439 4.90357 1.69825 4.83984 1.85868 4.83984C2.01911 4.83984 2.17296 4.90357 2.2864 5.01701C2.39984 5.13045 2.46357 5.28431 2.46357 5.44474V12.7035C2.46357 13.1848 2.65476 13.6463 2.99508 13.9867C3.3354 14.327 3.79697 14.5182 4.27826 14.5182H9.11742C9.5987 14.5182 10.0603 14.327 10.4006 13.9867C10.7409 13.6463 10.9321 13.1848 10.9321 12.7035V5.44474C10.9321 5.28431 10.9958 5.13045 11.1093 5.01701C11.2227 4.90357 11.3766 4.83984 11.537 4.83984C11.6974 4.83984 11.8513 4.90357 11.9647 5.01701C12.0782 5.13045 12.1419 5.28431 12.1419 5.44474V12.7035C12.1419 13.5056 11.8232 14.2749 11.256 14.8421C10.6888 15.4093 9.91956 15.728 9.11742 15.728Z" fill="#183C5E"/>
<path d="M12.7467 3.62971H0.64884C0.488412 3.62971 0.334555 3.56598 0.221115 3.45254C0.107675 3.3391 0.0439453 3.18525 0.0439453 3.02482C0.0439453 2.86439 0.107675 2.71053 0.221115 2.59709C0.334555 2.48365 0.488412 2.41992 0.64884 2.41992H12.7467C12.9072 2.41992 13.061 2.48365 13.1745 2.59709C13.2879 2.71053 13.3516 2.86439 13.3516 3.02482C13.3516 3.18525 13.2879 3.3391 13.1745 3.45254C13.061 3.56598 12.9072 3.62971 12.7467 3.62971Z" fill="#183C5E"/>
<path d="M9.11739 3.62937H4.27823C4.11781 3.62937 3.96395 3.56564 3.85051 3.4522C3.73707 3.33876 3.67334 3.1849 3.67334 3.02448V1.81469C3.67334 1.3334 3.86453 0.871828 4.20485 0.531509C4.54517 0.19119 5.00674 0 5.48802 0H7.9076C8.38889 0 8.85046 0.19119 9.19078 0.531509C9.5311 0.871828 9.72229 1.3334 9.72229 1.81469V3.02448C9.72229 3.1849 9.65856 3.33876 9.54512 3.4522C9.43168 3.56564 9.27782 3.62937 9.11739 3.62937ZM4.88313 2.41958H8.5125V1.81469C8.5125 1.65426 8.44877 1.5004 8.33533 1.38696C8.22189 1.27352 8.06803 1.20979 7.9076 1.20979H5.48802C5.3276 1.20979 5.17374 1.27352 5.0603 1.38696C4.94686 1.5004 4.88313 1.65426 4.88313 1.81469V2.41958Z" fill="#183C5E"/>
<path d="M5.48801 12.0984C5.32758 12.0984 5.17373 12.0346 5.06029 11.9212C4.94685 11.8077 4.88312 11.6539 4.88312 11.4935V7.25919C4.88312 7.09876 4.94685 6.94491 5.06029 6.83147C5.17373 6.71803 5.32758 6.6543 5.48801 6.6543C5.64844 6.6543 5.8023 6.71803 5.91574 6.83147C6.02918 6.94491 6.09291 7.09876 6.09291 7.25919V11.4935C6.09291 11.6539 6.02918 11.8077 5.91574 11.9212C5.8023 12.0346 5.64844 12.0984 5.48801 12.0984Z" fill="#183C5E"/>
<path d="M7.90757 12.0984C7.74714 12.0984 7.59328 12.0346 7.47984 11.9212C7.3664 11.8077 7.30267 11.6539 7.30267 11.4935V7.25919C7.30267 7.09876 7.3664 6.94491 7.47984 6.83147C7.59328 6.71803 7.74714 6.6543 7.90757 6.6543C8.068 6.6543 8.22185 6.71803 8.33529 6.83147C8.44873 6.94491 8.51246 7.09876 8.51246 7.25919V11.4935C8.51246 11.6539 8.44873 11.8077 8.33529 11.9212C8.22185 12.0346 8.068 12.0984 7.90757 12.0984Z" fill="#183C5E"/>
</svg>
