<svg width="14" height="14" viewBox="0 0 14 14" fill="none" xmlns="http://www.w3.org/2000/svg">
<path d="M13.2879 1.55983C12.392 0.662837 10.8287 0.662837 9.93169 1.55983L1.97241 9.51912C1.89664 9.59489 1.84204 9.69071 1.81641 9.79434L0.978471 13.1494C0.928329 13.3511 0.987385 13.5651 1.13447 13.7133C1.24701 13.8258 1.39855 13.8871 1.55344 13.8871C1.60135 13.8871 1.64927 13.8815 1.69718 13.8693L5.05338 13.0302C5.15813 13.0046 5.25284 12.95 5.32861 12.8742L13.2879 4.91492C13.7358 4.46698 13.9832 3.87084 13.9832 3.23682C13.9832 2.60279 13.7369 2.00777 13.2879 1.55983ZM4.60656 11.9193L2.36909 12.4786L2.92846 10.2412L9.51272 3.6569L11.1908 5.335L4.60656 11.9193ZM12.4488 4.07587L12.0299 4.49484L10.3518 2.81674L10.7707 2.39777C11.2187 1.94983 12.0009 1.94983 12.4488 2.39777C12.6728 2.62174 12.7965 2.91925 12.7965 3.23682C12.7965 3.55439 12.6728 3.8519 12.4488 4.07587Z" fill="black"/>
</svg>
