<svg width="215" height="74" viewBox="0 0 215 74" fill="none" xmlns="http://www.w3.org/2000/svg">
<path d="M18.6695 63.8067H15.1059C14.7229 63.8067 14.5315 63.9988 14.5315 64.383L14.6135 73.016C14.6135 73.1657 14.5542 73.3093 14.4487 73.4152C14.3432 73.5211 14.2 73.5805 14.0508 73.5805L2.77365 73.4747C2.39185 73.4724 2.01462 73.3916 1.66521 73.2372C1.31581 73.0827 1.00171 72.858 0.742373 72.5768C0.483036 72.2957 0.283924 71.9641 0.157458 71.6027C0.0309925 71.2412 -0.0201451 70.8576 0.00713328 70.4755L4.73131 1.4702C4.76093 1.06994 4.93943 0.695813 5.23087 0.423045C5.52231 0.150277 5.90509 -0.000892002 6.30217 3.96002e-06H27.9655C28.3335 -0.000764429 28.6881 0.139623 28.9579 0.392823C29.2276 0.646022 29.3924 0.993162 29.4191 1.36432L34.4951 72.9807C34.5016 73.0462 34.4941 73.1124 34.4729 73.1749C34.4517 73.2375 34.4174 73.295 34.3721 73.3438C34.3268 73.3926 34.2715 73.4315 34.2099 73.4581C34.1483 73.4847 34.0817 73.4984 34.0145 73.4982L20.3693 73.51C19.9786 73.51 19.7714 73.3139 19.748 72.9219L19.2791 64.383C19.2557 63.9988 19.0525 63.8067 18.6695 63.8067ZM15.9381 16.3839C15.649 27.3928 15.3677 38.2135 15.0941 48.8459C15.0832 49.2416 15.1895 49.6316 15.3996 49.9665C15.6097 50.3015 15.9142 50.5664 16.2745 50.7276C16.6348 50.8888 17.0346 50.9392 17.4234 50.8722C17.8122 50.8052 18.1725 50.6239 18.4585 50.3514C19.9942 48.893 18.1654 18.548 17.9896 14.1021C17.9848 13.9264 17.9213 13.758 17.8093 13.6237C17.6973 13.4893 17.543 13.3966 17.371 13.3602C17.1989 13.3237 17.0188 13.3458 16.8591 13.4226C16.6994 13.4995 16.5693 13.6268 16.4891 13.7846C16.1531 14.4746 15.9694 15.341 15.9381 16.3839Z" fill="#0000F5"/>
<path d="M52.2414 60.1488C54.5156 60.4664 61.2092 58.9256 61.2913 62.3247C61.3694 65.6336 61.4085 68.8798 61.4085 72.0633C61.4085 72.447 61.2566 72.815 60.9862 73.0863C60.7158 73.3576 60.3491 73.51 59.9667 73.51H38.7252C38.2091 73.51 37.7142 73.3055 37.3493 72.9416C36.9843 72.5776 36.7793 72.084 36.7793 71.5693V1.17616C36.7793 0.864223 36.9028 0.565079 37.1227 0.344506C37.3425 0.123934 37.6407 0 37.9516 0H50.1079C50.3815 0 50.6439 0.109053 50.8374 0.303157C51.0308 0.497261 51.1395 0.760522 51.1395 1.03503V58.8785C51.1395 59.6234 51.5068 60.0469 52.2414 60.1488Z" fill="#0000F5"/>
<path d="M66.7095 73.3571C64.0133 73.2277 63.8608 72.0868 64.0132 69.6875C65.4903 46.9327 67.0533 24.1701 68.7023 1.39964C68.7318 1.01811 68.9029 0.661852 69.1812 0.402299C69.4594 0.142746 69.8243 -0.000931471 70.2028 4.54475e-06H92.2296C92.5038 -0.000581217 92.768 0.103699 92.9684 0.291604C93.1687 0.479509 93.2902 0.736906 93.308 1.01148L98.384 72.7102C98.3921 72.8123 98.379 72.915 98.3455 73.0118C98.3121 73.1086 98.259 73.1974 98.1896 73.2726C98.1202 73.3477 98.0359 73.4077 97.9423 73.4485C97.8486 73.4894 97.7475 73.5103 97.6454 73.51H84.1644C83.7111 73.51 83.4806 73.2826 83.4728 72.8278L83.3322 64.5123C83.3243 64.0419 83.0859 63.8067 82.617 63.8067H79.2996C78.7291 63.8067 78.4438 64.0928 78.4438 64.6652L78.5141 72.8866C78.5141 73.0655 78.4441 73.2373 78.3191 73.3649C78.1941 73.4925 78.0243 73.5657 77.846 73.5688C74.1494 73.6158 70.4373 73.5453 66.7095 73.3571ZM79.827 16.3839C79.5457 27.3692 79.2761 38.2213 79.0182 48.94C79.0106 49.3821 79.138 49.8393 79.3793 50.2362C79.6207 50.633 79.9615 50.9457 80.3455 51.1226C80.7295 51.2995 81.1337 51.3299 81.4913 51.209C81.8489 51.088 82.1385 50.8228 82.3123 50.4573C82.4061 50.2456 82.5115 50.0848 82.6288 49.975C82.957 49.6614 83.1133 49.2732 83.0977 48.8106L81.9137 14.1609C81.9073 13.977 81.8397 13.8006 81.7217 13.6597C81.6037 13.5189 81.4421 13.4218 81.2627 13.3838C81.0832 13.3459 80.8962 13.3694 80.7316 13.4506C80.567 13.5318 80.4343 13.6659 80.3546 13.8317C80.0341 14.5138 79.8583 15.3646 79.827 16.3839Z" fill="#0000F5"/>
<path d="M115.018 15.1019L115.077 28.4865C115.077 28.8858 115.235 29.2688 115.517 29.5512C115.798 29.8335 116.18 29.9921 116.578 29.9921H123.787C124.185 29.9921 124.567 30.1507 124.848 30.433C125.129 30.7153 125.287 31.0983 125.287 31.4976V41.9536C125.288 42.3468 125.134 42.7245 124.86 43.0058C124.587 43.2872 124.214 43.4499 123.822 43.4591L116.495 43.6473C116.104 43.6565 115.731 43.8192 115.457 44.1005C115.183 44.3819 115.03 44.7595 115.03 45.1528V72.0045C115.03 72.4037 114.872 72.7867 114.591 73.0691C114.309 73.3514 113.928 73.51 113.53 73.51H102.159C101.761 73.51 101.379 73.3514 101.098 73.0691C100.816 72.7867 100.658 72.4037 100.658 72.0045L100.693 1.50552C100.693 1.10624 100.851 0.723249 101.133 0.440916C101.414 0.158583 101.796 0 102.194 0H123.787C124.185 0 124.567 0.158583 124.848 0.440916C125.129 0.723249 125.287 1.10624 125.287 1.50552V11.9851C125.287 12.3803 125.133 12.7597 124.856 13.0413C124.58 13.323 124.204 13.4843 123.81 13.4905L116.507 13.5846C116.31 13.5862 116.115 13.6266 115.934 13.7037C115.752 13.7808 115.588 13.893 115.45 14.0339C115.311 14.1748 115.202 14.3416 115.128 14.5249C115.054 14.7081 115.017 14.9042 115.018 15.1019Z" fill="#0000F5"/>
<path d="M143.105 60.2076L150.877 60.3135C151.167 60.3166 151.444 60.4344 151.648 60.6414C151.853 60.8484 151.967 61.1278 151.967 61.419L151.932 72.4044C151.932 72.5496 151.903 72.6934 151.848 72.8275C151.793 72.9616 151.711 73.0835 151.609 73.1861C151.507 73.2888 151.385 73.3703 151.252 73.4258C151.118 73.4814 150.975 73.51 150.83 73.51H128.733C128.441 73.51 128.16 73.3935 127.954 73.1861C127.747 72.9788 127.631 72.6976 127.631 72.4044V1.10559C127.631 0.812372 127.747 0.53117 127.954 0.323832C128.16 0.116493 128.441 0 128.733 0H150.853C151.146 0 151.426 0.116493 151.633 0.323832C151.839 0.53117 151.955 0.812372 151.955 1.10559V12.3497C151.955 12.6389 151.843 12.9166 151.641 13.1233C151.439 13.3299 151.165 13.4491 150.877 13.4553L143.07 13.6199C142.781 13.6261 142.507 13.7453 142.305 13.952C142.104 14.1586 141.991 14.4363 141.991 14.7255V28.8277C141.991 29.1149 142.102 29.3909 142.301 29.5972C142.5 29.8036 142.772 29.9241 143.058 29.9333L150.889 30.1802C151.175 30.1894 151.446 30.3099 151.645 30.5163C151.844 30.7226 151.955 30.9986 151.955 31.2858V42.4359C151.956 42.7211 151.846 42.9954 151.649 43.2015C151.453 43.4075 151.184 43.5293 150.9 43.5414L143.046 43.859C142.762 43.8711 142.494 43.993 142.297 44.199C142.1 44.4051 141.991 44.6793 141.991 44.9646L142.015 59.102C142.015 59.3932 142.129 59.6727 142.333 59.8797C142.537 60.0867 142.815 60.2045 143.105 60.2076Z" fill="#0000F5"/>
<path d="M191.026 26.5106C190.338 26.3695 190.014 26.6479 190.053 27.3457C190.944 42.5182 191.889 57.6279 192.889 72.6749C192.929 73.2316 192.667 73.51 192.104 73.51H180.569C180.053 73.51 179.558 73.3055 179.193 72.9416C178.828 72.5776 178.623 72.084 178.623 71.5693V1.17616C178.623 0.864223 178.747 0.565079 178.966 0.344506C179.186 0.123934 179.484 0 179.795 0H194.449C194.839 0 195.062 0.192095 195.117 0.576307L201.846 46.3877C201.879 46.6216 201.983 46.839 202.143 47.0096C202.302 47.1803 202.51 47.2959 202.736 47.3404C202.947 47.3875 203.299 46.7641 203.287 46.4818C202.389 31.129 201.498 15.7841 200.615 0.446946C200.611 0.390941 200.62 0.334887 200.639 0.282195C200.658 0.229503 200.688 0.181312 200.726 0.140559C200.765 0.0998063 200.811 0.067297 200.862 0.0451541C200.914 0.0230112 200.969 0.0116814 201.025 0.0117731L214.049 0C214.611 0 214.893 0.282244 214.893 0.8468L214.998 73.016C214.998 73.147 214.946 73.2727 214.854 73.3653C214.762 73.458 214.637 73.51 214.506 73.51H198.61C198.243 73.51 198.036 73.3296 197.989 72.9689L191.588 27.0987C191.541 26.7694 191.354 26.5733 191.026 26.5106Z" fill="#0000F5"/>
<path d="M164.275 59.3968C160.934 59.2792 154.428 59.4556 154.628 55.2802C155.511 37.7398 156.366 20.3248 157.195 3.03523C157.213 2.64889 157.307 2.26995 157.472 1.92052C157.637 1.5711 157.87 1.25815 158.157 0.999851C158.444 0.741549 158.779 0.54304 159.143 0.415935C159.507 0.28883 159.893 0.235629 160.278 0.259439C164.396 0.518194 168.601 0.941632 172.891 1.52971C175.435 1.8708 176.045 3.16459 175.705 5.58748C173.306 22.3595 170.852 39.1159 168.343 55.8565C167.933 58.5382 167.159 59.5026 164.275 59.3968Z" fill="#0000F5"/>
<path d="M161.111 73.5335C164.31 73.5335 166.902 70.9322 166.902 67.7233C166.902 64.5144 164.31 61.9131 161.111 61.9131C157.913 61.9131 155.32 64.5144 155.32 67.7233C155.32 70.9322 157.913 73.5335 161.111 73.5335Z" fill="#0000F5"/>
</svg>
