<svg width="123" height="44" viewBox="0 0 123 44" fill="none" xmlns="http://www.w3.org/2000/svg">
<path d="M10.6807 37.4545H8.64196C8.42289 37.4545 8.31336 37.5644 8.31336 37.7842L8.36031 42.7231C8.36031 42.8088 8.32637 42.8909 8.266 42.9515C8.20563 43.0121 8.12374 43.0461 8.03837 43.0461L1.58679 42.9855C1.36836 42.9842 1.15255 42.938 0.952657 42.8497C0.752767 42.7613 0.573071 42.6327 0.424706 42.4719C0.276342 42.311 0.162431 42.1213 0.0900807 41.9146C0.0177306 41.7078 -0.0115249 41.4883 0.0040809 41.2697L2.70675 1.79227C2.7237 1.56328 2.82581 1.34924 2.99254 1.19319C3.15927 1.03714 3.37826 0.950662 3.60543 0.951174H15.9989C16.2094 0.950735 16.4123 1.03105 16.5666 1.1759C16.7209 1.32076 16.8152 1.51935 16.8305 1.73169L19.7344 42.7029C19.7381 42.7404 19.7338 42.7783 19.7217 42.8141C19.7096 42.8498 19.6899 42.8827 19.664 42.9106C19.6381 42.9386 19.6065 42.9609 19.5713 42.9761C19.536 42.9913 19.4979 42.9991 19.4594 42.999L11.6531 43.0057C11.4296 43.0057 11.3111 42.8936 11.2977 42.6693L11.0295 37.7842C11.016 37.5644 10.8998 37.4545 10.6807 37.4545ZM9.11809 10.3243C8.95267 16.6224 8.79173 22.8128 8.63525 28.8956C8.62897 29.1219 8.68978 29.345 8.80999 29.5367C8.9302 29.7283 9.10441 29.8799 9.31052 29.9721C9.51663 30.0643 9.74539 30.0931 9.96782 30.0548C10.1902 30.0165 10.3963 29.9128 10.56 29.7569C11.4385 28.9225 10.3923 11.5624 10.2917 9.01891C10.289 8.91836 10.2527 8.82206 10.1886 8.74519C10.1245 8.66832 10.0363 8.61526 9.93781 8.59442C9.83938 8.57359 9.73634 8.58619 9.64498 8.63015C9.55362 8.67412 9.47916 8.74696 9.43332 8.83722C9.24107 9.23198 9.13598 9.72767 9.11809 10.3243Z" fill="white"/>
<path d="M29.8887 35.3619C31.1898 35.5436 35.0191 34.6621 35.0661 36.6067C35.1108 38.4997 35.1332 40.3569 35.1332 42.1781C35.1332 42.3976 35.0463 42.6081 34.8916 42.7633C34.7369 42.9185 34.5271 43.0057 34.3083 43.0057H22.1562C21.861 43.0057 21.5778 42.8887 21.369 42.6805C21.1603 42.4723 21.043 42.1899 21.043 41.8955V1.62404C21.043 1.44559 21.1136 1.27445 21.2394 1.14826C21.3652 1.02207 21.5357 0.951172 21.7136 0.951172H28.6682C28.8247 0.951172 28.9748 1.01356 29.0855 1.12461C29.1962 1.23565 29.2583 1.38626 29.2583 1.5433V34.6352C29.2583 35.0613 29.4685 35.3036 29.8887 35.3619Z" fill="white"/>
<path d="M38.1634 42.9182C36.6209 42.8442 36.5337 42.1915 36.6209 40.8189C37.4659 27.801 38.3601 14.7787 39.3034 1.75189C39.3203 1.53363 39.4182 1.32981 39.5774 1.18132C39.7366 1.03284 39.9454 0.950639 40.1619 0.951174H52.7632C52.9201 0.950839 53.0713 1.0105 53.1859 1.118C53.3005 1.2255 53.37 1.37275 53.3802 1.52984L56.2841 42.5482C56.2888 42.6066 56.2813 42.6654 56.2621 42.7207C56.243 42.7761 56.2126 42.8269 56.1729 42.8699C56.1332 42.9129 56.085 42.9472 56.0314 42.9706C55.9779 42.9939 55.92 43.0059 55.8616 43.0057H48.1492C47.8899 43.0057 47.758 42.8756 47.7536 42.6154L47.6731 37.8582C47.6686 37.5891 47.5322 37.4545 47.264 37.4545H45.3661C45.0397 37.4545 44.8765 37.6182 44.8765 37.9457L44.9167 42.6491C44.9167 42.7514 44.8767 42.8497 44.8052 42.9227C44.7337 42.9957 44.6365 43.0376 44.5345 43.0394C42.4197 43.0663 40.296 43.0259 38.1634 42.9182ZM45.6678 10.3243C45.5069 16.6089 45.3527 22.8173 45.2051 28.9494C45.2008 29.2023 45.2737 29.4639 45.4117 29.6909C45.5498 29.918 45.7448 30.0969 45.9644 30.1981C46.1841 30.2992 46.4153 30.3167 46.6199 30.2475C46.8245 30.1783 46.9902 30.0266 47.0896 29.8174C47.1433 29.6963 47.2036 29.6043 47.2707 29.5415C47.4585 29.3621 47.5479 29.1401 47.539 28.8754L46.8616 9.05255C46.858 8.94734 46.8193 8.84639 46.7518 8.7658C46.6843 8.68522 46.5918 8.62966 46.4892 8.60798C46.3865 8.58629 46.2795 8.59974 46.1853 8.64617C46.0912 8.69261 46.0152 8.76936 45.9696 8.86416C45.7863 9.25443 45.6857 9.74113 45.6678 10.3243Z" fill="white"/>
<path d="M65.8013 9.59088L65.8348 17.2481C65.8348 17.4766 65.9253 17.6957 66.0863 17.8572C66.2473 18.0187 66.4656 18.1094 66.6933 18.1094H70.8177C71.0454 18.1094 71.2638 18.2002 71.4247 18.3617C71.5857 18.5232 71.6761 18.7423 71.6761 18.9707V24.9525C71.6762 25.1775 71.5885 25.3936 71.4319 25.5545C71.2752 25.7155 71.062 25.8086 70.8378 25.8138L66.6463 25.9215C66.4222 25.9267 66.209 26.0198 66.0523 26.1808C65.8957 26.3417 65.808 26.5578 65.808 26.7828V42.1444C65.808 42.3728 65.7176 42.5919 65.5566 42.7535C65.3956 42.915 65.1772 43.0057 64.9496 43.0057H58.4444C58.2167 43.0057 57.9984 42.915 57.8374 42.7535C57.6764 42.5919 57.5859 42.3728 57.5859 42.1444L57.6061 1.81247C57.6061 1.58404 57.6965 1.36494 57.8575 1.20342C58.0185 1.0419 58.2368 0.951172 58.4645 0.951172H70.8177C71.0454 0.951172 71.2638 1.0419 71.4247 1.20342C71.5857 1.36494 71.6761 1.58404 71.6761 1.81247V7.80775C71.6762 8.03386 71.5876 8.25089 71.4295 8.41203C71.2714 8.57317 71.0565 8.66547 70.8311 8.669L66.653 8.72284C66.5403 8.72372 66.4289 8.74688 66.325 8.79098C66.2212 8.83508 66.1271 8.89925 66.048 8.97985C65.9689 9.06046 65.9064 9.15593 65.8641 9.26076C65.8218 9.3656 65.8004 9.47777 65.8013 9.59088Z" fill="white"/>
<path d="M81.8701 35.3955L86.3164 35.4561C86.4825 35.4579 86.6411 35.5253 86.7579 35.6437C86.8746 35.7621 86.9401 35.922 86.9401 36.0886L86.92 42.3732C86.92 42.4563 86.9037 42.5385 86.872 42.6153C86.8403 42.692 86.7939 42.7617 86.7353 42.8205C86.6768 42.8792 86.6073 42.9258 86.5308 42.9576C86.4544 42.9894 86.3724 43.0057 86.2896 43.0057H73.648C73.4808 43.0057 73.3204 42.9391 73.2022 42.8205C73.084 42.7018 73.0176 42.541 73.0176 42.3732V1.58367C73.0176 1.41592 73.084 1.25505 73.2022 1.13643C73.3204 1.01782 73.4808 0.951172 73.648 0.951172H86.303C86.4702 0.951172 86.6305 1.01782 86.7488 1.13643C86.867 1.25505 86.9334 1.41592 86.9334 1.58367V8.01634C86.9334 8.18178 86.8689 8.34066 86.7536 8.45889C86.6382 8.57713 86.4813 8.64532 86.3164 8.64884L81.8499 8.74305C81.6851 8.74657 81.5281 8.81476 81.4128 8.93299C81.2975 9.05123 81.2329 9.21011 81.233 9.37555V17.4433C81.2329 17.6076 81.2965 17.7655 81.4104 17.8835C81.5243 18.0016 81.6795 18.0705 81.8432 18.0758L86.3231 18.2171C86.4868 18.2223 86.642 18.2913 86.7559 18.4093C86.8698 18.5274 86.9335 18.6853 86.9334 18.8496V25.2284C86.9336 25.3916 86.8708 25.5486 86.7583 25.6664C86.6459 25.7843 86.4923 25.854 86.3298 25.8609L81.8365 26.0426C81.674 26.0495 81.5205 26.1193 81.408 26.2371C81.2955 26.355 81.2328 26.5119 81.233 26.6751L81.2464 34.763C81.2464 34.9296 81.3118 35.0895 81.4286 35.2079C81.5454 35.3264 81.704 35.3938 81.8701 35.3955Z" fill="white"/>
<path d="M109.285 16.1177C108.891 16.037 108.706 16.1962 108.728 16.5955C109.238 25.2755 109.779 33.9197 110.351 42.528C110.374 42.8465 110.224 43.0057 109.902 43.0057H103.303C103.007 43.0057 102.724 42.8887 102.516 42.6805C102.307 42.4723 102.189 42.1899 102.189 41.8955V1.62404C102.189 1.44559 102.26 1.27445 102.386 1.14826C102.512 1.02207 102.682 0.951172 102.86 0.951172H111.243C111.467 0.951172 111.594 1.06107 111.625 1.28087L115.475 27.4893C115.494 27.6231 115.554 27.7474 115.645 27.8451C115.736 27.9427 115.855 28.0088 115.985 28.0343C116.105 28.0612 116.307 27.7046 116.3 27.5431C115.786 18.7599 115.276 9.98113 114.771 1.20687C114.769 1.17483 114.774 1.14276 114.785 1.11261C114.796 1.08247 114.813 1.0549 114.835 1.03158C114.857 1.00827 114.883 0.989672 114.912 0.977004C114.942 0.964336 114.973 0.957855 115.005 0.957907L122.456 0.951172C122.778 0.951172 122.939 1.11264 122.939 1.43562L123 42.7231C123 42.7981 122.97 42.87 122.917 42.923C122.864 42.976 122.793 43.0057 122.718 43.0057H113.624C113.414 43.0057 113.295 42.9025 113.268 42.6962L109.607 16.4541C109.58 16.2657 109.473 16.1536 109.285 16.1177Z" fill="white"/>
<path d="M93.9809 34.9314C92.0696 34.8641 88.3475 34.9651 88.4615 32.5764C88.9668 22.5416 89.4563 12.5786 89.9302 2.68737C89.9405 2.46635 89.9944 2.24955 90.089 2.04965C90.1835 1.84975 90.3167 1.67071 90.4808 1.52294C90.645 1.37517 90.8367 1.2616 91.045 1.18889C91.2533 1.11617 91.4739 1.08573 91.694 1.09936C94.0502 1.24739 96.4556 1.48963 98.9101 1.82607C100.365 2.0212 100.714 2.76137 100.52 4.14749C99.1471 13.7427 97.7432 23.3288 96.308 32.9061C96.0733 34.4402 95.6307 34.992 93.9809 34.9314Z" fill="white"/>
<path d="M92.1704 43.0191C94.0001 43.0191 95.4834 41.5309 95.4834 39.6951C95.4834 37.8593 94.0001 36.3711 92.1704 36.3711C90.3407 36.3711 88.8574 37.8593 88.8574 39.6951C88.8574 41.5309 90.3407 43.0191 92.1704 43.0191Z" fill="white"/>
</svg>
