<svg width="179" height="28" viewBox="0 0 179 28" fill="none" xmlns="http://www.w3.org/2000/svg">
<path d="M60.9359 0H42.1392C39.7798 0 37.8672 1.91264 37.8672 4.27199V23.0687C37.8672 25.4281 39.7798 27.3407 42.1392 27.3407H60.9359C63.2953 27.3407 65.2079 25.4281 65.2079 23.0687V4.27199C65.2079 1.91264 63.2953 0 60.9359 0Z" fill="#F00073"/>
<path d="M51.5378 7.86168C53.4175 7.86168 53.6738 7.86168 54.4427 7.86168C55.1263 7.86168 55.468 8.03255 55.7243 8.11799C56.0661 8.28887 56.3224 8.37431 56.5787 8.63063C56.8351 8.88695 57.0059 9.14327 57.0914 9.48503C57.1768 9.74135 57.2623 10.0831 57.3477 10.7666C57.3477 11.5356 57.3477 11.7065 57.3477 13.6716C57.3477 15.6367 57.3477 15.8076 57.3477 16.5765C57.3477 17.2601 57.1768 17.6018 57.0914 17.8581C56.9205 18.1999 56.8351 18.4562 56.5787 18.7125C56.3224 18.9688 56.0661 19.1397 55.7243 19.2252C55.468 19.3106 55.1263 19.396 54.4427 19.4815C53.6738 19.4815 53.5029 19.4815 51.5378 19.4815C49.5727 19.4815 49.4018 19.4815 48.6328 19.4815C47.9493 19.4815 47.6076 19.3106 47.3512 19.2252C47.0095 19.0543 46.7532 18.9688 46.4968 18.7125C46.2405 18.4562 46.0696 18.1999 45.9842 17.8581C45.8988 17.6018 45.8133 17.2601 45.7279 16.5765C45.7279 15.8076 45.7279 15.6367 45.7279 13.6716C45.7279 11.7065 45.7279 11.5356 45.7279 10.7666C45.7279 10.0831 45.8988 9.74135 45.9842 9.48503C46.1551 9.14327 46.2405 8.88695 46.4968 8.63063C46.7532 8.37431 47.0095 8.20343 47.3512 8.11799C47.6076 8.03255 47.9493 7.94711 48.6328 7.86168C49.4018 7.86168 49.6581 7.86168 51.5378 7.86168ZM51.5378 6.58008C49.5727 6.58008 49.4018 6.58008 48.6328 6.58008C47.8639 6.58008 47.3512 6.75096 46.924 6.92184C46.4968 7.09272 46.0696 7.34904 45.6424 7.77624C45.2152 8.20343 45.0444 8.54519 44.788 9.05783C44.6172 9.48503 44.5317 9.99767 44.4463 10.7666C44.4463 11.5356 44.4463 11.7919 44.4463 13.6716C44.4463 15.6367 44.4463 15.8076 44.4463 16.5765C44.4463 17.3455 44.6172 17.8581 44.788 18.2853C44.9589 18.7125 45.2152 19.1397 45.6424 19.5669C46.0696 19.9941 46.4114 20.165 46.924 20.4213C47.3512 20.5922 47.8639 20.6776 48.6328 20.7631C49.4018 20.7631 49.6581 20.7631 51.5378 20.7631C53.4175 20.7631 53.6738 20.7631 54.4427 20.7631C55.2117 20.7631 55.7243 20.5922 56.1515 20.4213C56.5787 20.2504 57.0059 19.9941 57.4331 19.5669C57.8603 19.1397 58.0312 18.798 58.2875 18.2853C58.4584 17.8581 58.5439 17.3455 58.6293 16.5765C58.6293 15.8076 58.6293 15.5513 58.6293 13.6716C58.6293 11.7919 58.6293 11.5356 58.6293 10.7666C58.6293 9.99767 58.4584 9.48503 58.2875 9.05783C58.1167 8.63063 57.8603 8.20343 57.4331 7.77624C57.0059 7.34904 56.6642 7.17816 56.1515 6.92184C55.7243 6.75096 55.2117 6.66552 54.4427 6.58008C53.6738 6.58008 53.5029 6.58008 51.5378 6.58008Z" fill="white"/>
<path d="M51.5378 9.99767C49.4872 9.99767 47.8639 11.621 47.8639 13.6716C47.8639 15.7221 49.4872 17.3455 51.5378 17.3455C53.5883 17.3455 55.2117 15.7221 55.2117 13.6716C55.2117 11.621 53.5883 9.99767 51.5378 9.99767ZM51.5378 16.0639C50.2562 16.0639 49.1455 15.0386 49.1455 13.6716C49.1455 12.39 50.1708 11.2793 51.5378 11.2793C52.8194 11.2793 53.9301 12.3045 53.9301 13.6716C53.9301 14.9532 52.8194 16.0639 51.5378 16.0639Z" fill="white"/>
<path d="M55.2971 10.7666C55.769 10.7666 56.1515 10.3841 56.1515 9.91223C56.1515 9.44036 55.769 9.05783 55.2971 9.05783C54.8253 9.05783 54.4427 9.44036 54.4427 9.91223C54.4427 10.3841 54.8253 10.7666 55.2971 10.7666Z" fill="white"/>
<path d="M136.67 0H117.874C115.514 0 113.602 1.91264 113.602 4.27199V23.0687C113.602 25.4281 115.514 27.3407 117.874 27.3407H136.67C139.03 27.3407 140.942 25.4281 140.942 23.0687V4.27199C140.942 1.91264 139.03 0 136.67 0Z" fill="#25D366"/>
<path fill-rule="evenodd" clip-rule="evenodd" d="M132.056 8.80105C130.775 7.51946 129.066 6.83594 127.272 6.83594C123.512 6.83594 120.437 9.91177 120.437 13.6711C120.437 14.8673 120.778 16.0634 121.376 17.0887L120.437 20.5063L124.025 19.5665C125.05 20.0791 126.161 20.4209 127.272 20.4209C131.031 20.4209 134.107 17.345 134.107 13.5857C134.107 11.7914 133.338 10.0827 132.056 8.80105ZM127.272 19.3101C126.246 19.3101 125.221 19.0538 124.367 18.5412L124.196 18.4558L122.06 19.0538L122.658 17.0033L122.487 16.747C121.889 15.8071 121.633 14.7818 121.633 13.7566C121.633 10.6807 124.196 8.11753 127.272 8.11753C128.81 8.11753 130.177 8.71561 131.287 9.74089C132.398 10.8516 132.911 12.2186 132.911 13.7566C132.911 16.747 130.433 19.3101 127.272 19.3101ZM130.348 15.0382C130.177 14.9527 129.322 14.5255 129.151 14.5255C128.981 14.4401 128.895 14.4401 128.81 14.611C128.724 14.7818 128.382 15.1236 128.297 15.2945C128.212 15.3799 128.126 15.3799 127.955 15.3799C127.784 15.2945 127.272 15.1236 126.588 14.5255C126.076 14.0983 125.734 13.5002 125.648 13.3294C125.563 13.1585 125.648 13.073 125.734 12.9876C125.819 12.9022 125.905 12.8167 125.99 12.7313C126.076 12.6458 126.076 12.5604 126.161 12.475C126.246 12.3895 126.161 12.3041 126.161 12.2186C126.161 12.1332 125.819 11.2788 125.648 10.937C125.563 10.6807 125.392 10.6807 125.307 10.6807C125.221 10.6807 125.136 10.6807 124.965 10.6807C124.879 10.6807 124.709 10.6807 124.538 10.8516C124.367 11.0225 123.94 11.4497 123.94 12.3041C123.94 13.1585 124.538 13.9274 124.623 14.0983C124.709 14.1838 125.819 15.978 127.528 16.6615C128.98 17.2596 129.237 17.0887 129.579 17.0887C129.92 17.0887 130.604 16.6615 130.689 16.3198C130.86 15.8926 130.86 15.5508 130.775 15.5508C130.689 15.1236 130.518 15.1236 130.348 15.0382Z" fill="white"/>
<path d="M174.539 0H155.743C153.383 0 151.471 1.91264 151.471 4.27199V23.0687C151.471 25.4281 153.383 27.3407 155.743 27.3407H174.539C176.899 27.3407 178.811 25.4281 178.811 23.0687V4.27199C178.811 1.91264 176.899 0 174.539 0Z" fill="#0851BC"/>
<path d="M165.14 20.8128C161.199 20.8128 157.996 17.6098 157.996 13.6691C157.996 9.72843 161.199 6.52539 165.14 6.52539C169.08 6.52539 172.284 9.72843 172.284 13.6691C172.284 17.6098 169.08 20.8128 165.14 20.8128ZM165.14 7.52219C161.751 7.52219 158.993 10.28 158.993 13.6691C158.993 17.0582 161.751 19.816 165.14 19.816C168.529 19.816 171.287 17.0582 171.287 13.6691C171.287 10.28 168.529 7.52219 165.14 7.52219Z" fill="white"/>
<path d="M163.147 20.1498H162.482C162.21 20.1498 161.984 19.9238 161.984 19.6514C161.984 19.3789 162.197 19.1596 162.469 19.153C161.426 15.5911 161.426 11.7501 162.469 8.1882C162.197 8.18156 161.984 7.96226 161.984 7.68981C161.984 7.41735 162.21 7.19141 162.482 7.19141H163.147C163.306 7.19141 163.459 7.27115 163.552 7.39741C163.645 7.53032 163.672 7.69645 163.619 7.84929C162.369 11.6039 162.369 15.7373 163.619 19.4985C163.672 19.6514 163.645 19.8175 163.552 19.9504C163.459 20.07 163.306 20.1498 163.147 20.1498Z" fill="white"/>
<path d="M167.134 20.1496C167.081 20.1496 167.027 20.1429 166.974 20.123C166.715 20.0366 166.569 19.7508 166.662 19.4917C167.911 15.7371 167.911 11.6037 166.662 7.84242C166.576 7.58326 166.715 7.29751 166.974 7.21112C167.24 7.12473 167.519 7.26428 167.606 7.52345C168.928 11.4841 168.928 15.8434 167.606 19.7974C167.539 20.0166 167.34 20.1496 167.134 20.1496Z" fill="white"/>
<path d="M165.14 17.1249C163.286 17.1249 161.439 16.8658 159.658 16.3408C159.651 16.6066 159.432 16.8259 159.16 16.8259C158.887 16.8259 158.661 16.6 158.661 16.3275V15.663C158.661 15.5035 158.741 15.3506 158.867 15.2576C159 15.1646 159.166 15.138 159.319 15.1912C163.074 16.4405 167.214 16.4405 170.968 15.1912C171.121 15.138 171.287 15.1646 171.42 15.2576C171.553 15.3506 171.626 15.5035 171.626 15.663V16.3275C171.626 16.6 171.4 16.8259 171.128 16.8259C170.855 16.8259 170.636 16.6133 170.629 16.3408C168.842 16.8658 166.994 17.1249 165.14 17.1249Z" fill="white"/>
<path d="M171.122 12.1749C171.068 12.1749 171.015 12.1683 170.962 12.1483C167.208 10.899 163.067 10.899 159.313 12.1483C159.047 12.2347 158.768 12.0952 158.682 11.836C158.602 11.5702 158.741 11.2911 159.001 11.2047C162.961 9.88229 167.32 9.88229 171.274 11.2047C171.534 11.2911 171.68 11.5768 171.587 11.836C171.527 12.042 171.328 12.1749 171.122 12.1749Z" fill="white"/>
<path d="M23.0687 0H4.27199C1.91264 0 0 1.91264 0 4.27199V23.0687C0 25.4281 1.91264 27.3407 4.27199 27.3407H23.0687C25.4281 27.3407 27.3407 25.4281 27.3407 23.0687V4.27199C27.3407 1.91264 25.4281 0 23.0687 0Z" fill="#1877F2"/>
<path d="M20.5053 13.6711C20.5053 9.91177 17.4295 6.83594 13.6701 6.83594C9.91079 6.83594 6.83496 9.91177 6.83496 13.6711C6.83496 17.0887 9.31272 19.9082 12.5594 20.4209V15.6362H10.8506V13.6711H12.5594V12.1332C12.5594 10.4244 13.5847 9.48457 15.1226 9.48457C15.8916 9.48457 16.6605 9.65545 16.6605 9.65545V11.3642H15.8061C14.9517 11.3642 14.6954 11.8769 14.6954 12.3895V13.6711H16.5751L16.2333 15.6362H14.61V20.5063C18.0276 19.9937 20.5053 17.0887 20.5053 13.6711Z" fill="white"/>
<path d="M98.8031 0H80.0064C77.647 0 75.7344 1.91264 75.7344 4.27199V23.0687C75.7344 25.4281 77.647 27.3407 80.0064 27.3407H98.8031C101.162 27.3407 103.075 25.4281 103.075 23.0687V4.27199C103.075 1.91264 101.162 0 98.8031 0Z" fill="#FF0000"/>
<path d="M95.898 10.3372C95.7271 9.73916 95.2999 9.31196 94.7018 9.14109C93.6765 8.88477 89.3191 8.88477 89.3191 8.88477C89.3191 8.88477 85.0471 8.88477 83.9364 9.14109C83.3383 9.31196 82.9111 9.73916 82.7402 10.3372C82.5693 11.448 82.5693 13.6694 82.5693 13.6694C82.5693 13.6694 82.5693 15.8908 82.8257 17.0015C82.9965 17.5996 83.4237 18.0268 84.0218 18.1977C85.0471 18.454 89.4045 18.454 89.4045 18.454C89.4045 18.454 93.6765 18.454 94.7872 18.1977C95.3853 18.0268 95.8125 17.5996 95.9834 17.0015C96.2397 15.8908 96.2397 13.6694 96.2397 13.6694C96.2397 13.6694 96.2397 11.448 95.898 10.3372ZM88.0375 15.72V11.6188L91.626 13.6694L88.0375 15.72Z" fill="white"/>
</svg>
