<svg width="17" height="17" viewBox="0 0 17 17" fill="none" xmlns="http://www.w3.org/2000/svg">
<path d="M8.5013 1.41663C4.59768 1.41663 1.41797 4.59633 1.41797 8.49996C1.41797 12.4036 4.59768 15.5833 8.5013 15.5833C12.4049 15.5833 15.5846 12.4036 15.5846 8.49996C15.5846 4.59633 12.4049 1.41663 8.5013 1.41663ZM8.5013 2.83329C9.81398 2.83329 11.0162 3.28136 11.9752 4.02584L4.0258 11.9752C3.281 11.0162 2.83464 9.81295 2.83464 8.49996C2.83464 5.36196 5.3633 2.83329 8.5013 2.83329ZM12.9782 5.02608C13.7223 5.98487 14.168 7.18766 14.168 8.49996C14.168 11.638 11.6393 14.1666 8.5013 14.1666C7.18901 14.1666 5.98622 13.7209 5.02742 12.9768L12.9782 5.02608Z" fill="black" stroke="white" stroke-width="0.3"/>
</svg>
