<svg width="15" height="14" viewBox="0 0 15 14" fill="none" xmlns="http://www.w3.org/2000/svg">
<g clip-path="url(#clip0_96_1105)">
<path d="M7.12085 0C5.73638 0 4.383 0.410543 3.23186 1.17971C2.08072 1.94888 1.18351 3.04213 0.653696 4.32122C0.123883 5.6003 -0.0147408 7.00777 0.255356 8.36563C0.525452 9.7235 1.19214 10.9708 2.17111 11.9497C3.15007 12.9287 4.39735 13.5954 5.75522 13.8655C7.11309 14.1356 8.52055 13.997 9.79964 13.4672C11.0787 12.9373 12.172 12.0401 12.9411 10.889C13.7103 9.73785 14.1209 8.38447 14.1209 7C14.1188 5.1441 13.3807 3.36479 12.0684 2.05247C10.7561 0.74015 8.97675 0.0020073 7.12085 0ZM7.12085 12.8333C5.96713 12.8333 4.83931 12.4912 3.88003 11.8502C2.92074 11.2093 2.17307 10.2982 1.73156 9.23232C1.29004 8.16642 1.17452 6.99353 1.39961 5.86197C1.62469 4.73042 2.18026 3.69102 2.99606 2.87521C3.81187 2.0594 4.85127 1.50383 5.98283 1.27875C7.11438 1.05367 8.28727 1.16919 9.35317 1.6107C10.4191 2.05221 11.3301 2.79989 11.9711 3.75917C12.6121 4.71846 12.9542 5.84628 12.9542 7C12.9525 8.54658 12.3374 10.0293 11.2438 11.1229C10.1502 12.2165 8.66743 12.8316 7.12085 12.8333Z" fill="#183C5E"/>
<path d="M9.86661 4.25426C9.75722 4.1449 9.60887 4.08346 9.45419 4.08346C9.29951 4.08346 9.15116 4.1449 9.04177 4.25426L7.12086 6.17517L5.19994 4.25426C5.14613 4.19854 5.08176 4.1541 5.01059 4.12353C4.93942 4.09296 4.86288 4.07687 4.78542 4.07619C4.70797 4.07552 4.63116 4.09028 4.55947 4.11961C4.48778 4.14894 4.42265 4.19226 4.36788 4.24703C4.31311 4.3018 4.26979 4.36693 4.24046 4.43862C4.21113 4.51031 4.19637 4.58712 4.19704 4.66457C4.19772 4.74203 4.21381 4.81857 4.24438 4.88974C4.27495 4.96091 4.31939 5.02528 4.37511 5.07909L6.29602 7.00001L4.37511 8.92092C4.31939 8.97473 4.27495 9.0391 4.24438 9.11027C4.21381 9.18144 4.19772 9.25798 4.19704 9.33544C4.19637 9.41289 4.21113 9.48971 4.24046 9.5614C4.26979 9.63309 4.31311 9.69822 4.36788 9.75299C4.42265 9.80776 4.48778 9.85107 4.55947 9.8804C4.63116 9.90973 4.70797 9.92449 4.78542 9.92382C4.86288 9.92315 4.93942 9.90705 5.01059 9.87648C5.08176 9.84591 5.14613 9.80147 5.19994 9.74576L7.12086 7.82484L9.04177 9.74576C9.15179 9.85202 9.29914 9.91081 9.45209 9.90948C9.60504 9.90815 9.75135 9.84681 9.8595 9.73865C9.96765 9.6305 10.029 9.48419 10.0303 9.33124C10.0317 9.17829 9.97287 9.03094 9.86661 8.92092L7.94569 7.00001L9.86661 5.07909C9.97596 4.9697 10.0374 4.82135 10.0374 4.66667C10.0374 4.51199 9.97596 4.36365 9.86661 4.25426Z" fill="#183C5E"/>
</g>
<defs>
<clipPath id="clip0_96_1105">
<rect width="14" height="14" fill="white" transform="translate(0.12085)"/>
</clipPath>
</defs>
</svg>
