<svg width="20" height="20" viewBox="0 0 20 20" fill="none" xmlns="http://www.w3.org/2000/svg">
<path d="M16.3392 15.6223C16.3392 16.3565 15.7425 16.9757 15.0083 16.9757H4.35917C3.62501 16.9757 3.02834 16.3565 3.02834 15.6223V4.97318C3.02834 4.23901 3.62501 3.66401 4.35917 3.66401H10.5708V2.77734H4.35917C3.13584 2.77734 2.14084 3.75068 2.14084 4.97401V15.6223C2.14084 16.8457 3.13584 17.8623 4.35917 17.8623H15.0075C16.2308 17.8623 17.2258 16.8448 17.2258 15.6223V9.43234H16.3383L16.3392 15.6223Z" fill="#183C5E" stroke="#183C5E" stroke-width="0.5"/>
<path d="M17.3392 2.6418C16.6692 1.97096 15.5 1.97096 14.8292 2.6418L8.87666 8.5943C8.81999 8.65096 8.77915 8.72263 8.75999 8.80013L8.13332 11.3093C8.09582 11.4601 8.13999 11.6201 8.24999 11.731C8.33415 11.8151 8.44749 11.861 8.56332 11.861C8.59915 11.861 8.63499 11.8568 8.67082 11.8476L11.1808 11.2201C11.2592 11.201 11.33 11.1601 11.3867 11.1035L17.3392 5.15096C17.6742 4.81596 17.8592 4.37013 17.8592 3.89596C17.8592 3.4218 17.675 2.9768 17.3392 2.6418ZM10.8467 10.3893L9.17332 10.8076L9.59166 9.1343L14.5158 4.21013L15.7708 5.46513L10.8467 10.3893ZM16.7117 4.52346L16.3983 4.8368L15.1433 3.5818L15.4567 3.26846C15.7917 2.93346 16.3767 2.93346 16.7117 3.26846C16.8792 3.43596 16.9717 3.65846 16.9717 3.89596C16.9717 4.13346 16.8792 4.35596 16.7117 4.52346Z" fill="#183C5E" stroke="#183C5E" stroke-width="0.5"/>
</svg>
