<svg width="20" height="20" viewBox="0 0 20 20" fill="none" xmlns="http://www.w3.org/2000/svg">
<path d="M12.7988 12.0002H12.1668L11.9428 11.7842C12.7268 10.8722 13.1988 9.6882 13.1988 8.4002C13.1988 5.5282 10.8708 3.2002 7.99883 3.2002C5.12683 3.2002 2.79883 5.5282 2.79883 8.4002C2.79883 11.2722 5.12683 13.6002 7.99883 13.6002C9.28683 13.6002 10.4708 13.1282 11.3828 12.3442L11.5988 12.5682V13.2002L15.5988 17.1922L16.7908 16.0002L12.7988 12.0002ZM7.99883 12.0002C6.00683 12.0002 4.39883 10.3922 4.39883 8.4002C4.39883 6.4082 6.00683 4.8002 7.99883 4.8002C9.99083 4.8002 11.5988 6.4082 11.5988 8.4002C11.5988 10.3922 9.99083 12.0002 7.99883 12.0002Z" fill="#4F5B67"/>
</svg>
