<svg width="28" height="28" viewBox="0 0 28 28" fill="none" xmlns="http://www.w3.org/2000/svg">
<path d="M23.0687 0H4.27199C1.91264 0 0 1.91264 0 4.27199V23.0687C0 25.4281 1.91264 27.3407 4.27199 27.3407H23.0687C25.4281 27.3407 27.3407 25.4281 27.3407 23.0687V4.27199C27.3407 1.91264 25.4281 0 23.0687 0Z" fill="#1877F2"/>
<path d="M20.5063 13.6711C20.5063 9.91177 17.4305 6.83594 13.6711 6.83594C9.91177 6.83594 6.83594 9.91177 6.83594 13.6711C6.83594 17.0887 9.31369 19.9082 12.5604 20.4209V15.6362H10.8516V13.6711H12.5604V12.1332C12.5604 10.4244 13.5857 9.48457 15.1236 9.48457C15.8926 9.48457 16.6615 9.65545 16.6615 9.65545V11.3642H15.8071C14.9527 11.3642 14.6964 11.8769 14.6964 12.3895V13.6711H16.5761L16.2343 15.6362H14.611V20.5063C18.0286 19.9937 20.5063 17.0887 20.5063 13.6711Z" fill="white"/>
</svg>
