<svg width="29" height="28" viewBox="0 0 29 28" fill="none" xmlns="http://www.w3.org/2000/svg">
<path d="M23.9359 0H5.13918C2.77982 0 0.867188 1.91264 0.867188 4.27199V23.0687C0.867188 25.4281 2.77982 27.3407 5.13918 27.3407H23.9359C26.2953 27.3407 28.2079 25.4281 28.2079 23.0687V4.27199C28.2079 1.91264 26.2953 0 23.9359 0Z" fill="#F00073"/>
<path d="M14.5368 7.85972C16.4165 7.85972 16.6728 7.85972 17.4418 7.85972C18.1253 7.85972 18.467 8.0306 18.7234 8.11604C19.0651 8.28692 19.3214 8.37236 19.5778 8.62868C19.8341 8.885 20.005 9.14132 20.0904 9.48308C20.1758 9.7394 20.2613 10.0812 20.3467 10.7647C20.3467 11.5336 20.3467 11.7045 20.3467 13.6696C20.3467 15.6347 20.3467 15.8056 20.3467 16.5746C20.3467 17.2581 20.1758 17.5999 20.0904 17.8562C19.9195 18.1979 19.8341 18.4543 19.5778 18.7106C19.3214 18.9669 19.0651 19.1378 18.7234 19.2232C18.467 19.3087 18.1253 19.3941 17.4418 19.4795C16.6728 19.4795 16.5019 19.4795 14.5368 19.4795C12.5717 19.4795 12.4008 19.4795 11.6319 19.4795C10.9483 19.4795 10.6066 19.3087 10.3503 19.2232C10.0085 19.0523 9.75219 18.9669 9.49587 18.7106C9.23955 18.4543 9.06867 18.1979 8.98323 17.8562C8.89779 17.5999 8.81235 17.2581 8.72691 16.5746C8.72691 15.8056 8.72691 15.6347 8.72691 13.6696C8.72691 11.7045 8.72691 11.5336 8.72691 10.7647C8.72691 10.0812 8.89779 9.7394 8.98323 9.48308C9.15411 9.14132 9.23955 8.885 9.49587 8.62868C9.75219 8.37236 10.0085 8.20148 10.3503 8.11604C10.6066 8.0306 10.9483 7.94516 11.6319 7.85972C12.4008 7.85972 12.6571 7.85972 14.5368 7.85972ZM14.5368 6.57812C12.5717 6.57812 12.4008 6.57812 11.6319 6.57812C10.8629 6.57812 10.3503 6.74901 9.92307 6.91988C9.49587 7.09076 9.06867 7.34708 8.64147 7.77428C8.21427 8.20148 8.04339 8.54324 7.78707 9.05588C7.61619 9.48308 7.53075 9.99572 7.44531 10.7647C7.44531 11.5336 7.44531 11.79 7.44531 13.6696C7.44531 15.6347 7.44531 15.8056 7.44531 16.5746C7.44531 17.3435 7.61619 17.8562 7.78707 18.2834C7.95795 18.7106 8.21427 19.1378 8.64147 19.565C9.06867 19.9922 9.41043 20.1631 9.92307 20.4194C10.3503 20.5903 10.8629 20.6757 11.6319 20.7611C12.4008 20.7611 12.6571 20.7611 14.5368 20.7611C16.4165 20.7611 16.6728 20.7611 17.4418 20.7611C18.2107 20.7611 18.7234 20.5903 19.1506 20.4194C19.5778 20.2485 20.005 19.9922 20.4322 19.565C20.8594 19.1378 21.0302 18.796 21.2866 18.2834C21.4574 17.8562 21.5429 17.3435 21.6283 16.5746C21.6283 15.8056 21.6283 15.5493 21.6283 13.6696C21.6283 11.79 21.6283 11.5336 21.6283 10.7647C21.6283 9.99572 21.4574 9.48308 21.2866 9.05588C21.1157 8.62868 20.8594 8.20148 20.4322 7.77428C20.005 7.34708 19.6632 7.1762 19.1506 6.91988C18.7234 6.74901 18.2107 6.66356 17.4418 6.57812C16.6728 6.57813 16.5019 6.57812 14.5368 6.57812Z" fill="white"/>
<path d="M14.5368 9.99572C12.4863 9.99572 10.8629 11.6191 10.8629 13.6696C10.8629 15.7202 12.4863 17.3435 14.5368 17.3435C16.5874 17.3435 18.2107 15.7202 18.2107 13.6696C18.2107 11.6191 16.5874 9.99572 14.5368 9.99572ZM14.5368 16.0619C13.2552 16.0619 12.1445 15.0367 12.1445 13.6696C12.1445 12.388 13.1698 11.2773 14.5368 11.2773C15.8184 11.2773 16.9291 12.3026 16.9291 13.6696C16.9291 14.9512 15.8184 16.0619 14.5368 16.0619Z" fill="white"/>
<path d="M18.2962 10.7647C18.768 10.7647 19.1506 10.3821 19.1506 9.91028C19.1506 9.43841 18.768 9.05588 18.2962 9.05588C17.8243 9.05588 17.4418 9.43841 17.4418 9.91028C17.4418 10.3821 17.8243 10.7647 18.2962 10.7647Z" fill="white"/>
</svg>
